<svg width="800" height="800" viewBox="0 0 800 800" fill="none" xmlns="http://www.w3.org/2000/svg">
<path d="M400 733.333C501.253 733.333 583.333 651.253 583.333 550C583.333 492.12 556.513 440.507 514.62 406.907C505.83 399.857 500 389.523 500 378.257V166.667C500 111.438 455.23 66.6666 400 66.6666C344.77 66.6666 300 111.438 300 166.667V378.257C300 389.523 294.168 399.857 285.38 406.907C243.488 440.507 216.667 492.12 216.667 550C216.667 651.253 298.748 733.333 400 733.333Z" stroke="#E07B3D" stroke-width="50"/>
<path d="M483.333 550C483.333 596.023 446.023 633.333 400 633.333C353.977 633.333 316.667 596.023 316.667 550C316.667 503.977 353.977 466.667 400 466.667C446.023 466.667 483.333 503.977 483.333 550Z" stroke="#E07B3D" stroke-width="50"/>
<path d="M400 466.667V166.667" stroke="#E07B3D" stroke-width="50" stroke-linecap="round"/>
</svg>
