<svg width="800" height="800" viewBox="0 0 800 800" fill="none" xmlns="http://www.w3.org/2000/svg">
<path d="M106.248 501.617C53.4727 554.627 53.4727 640.57 106.248 693.58C159.023 746.59 244.589 746.59 297.365 693.58L422.223 568.17L363.153 543.65C337.257 532.503 319.331 508.23 316.22 480.107C312.18 443.583 283.475 414.75 247.112 410.693H196.772L106.248 501.617Z" fill="#3E6595"/>
<path fill-rule="evenodd" clip-rule="evenodd" d="M445.417 74.4357C455.853 64.0447 472.74 64.082 483.13 74.5187L725.567 318.027C735.957 328.464 735.92 345.35 725.483 355.74C715.043 366.13 698.16 366.093 687.77 355.657L445.333 112.148C434.943 101.711 434.98 84.8267 445.417 74.4357Z" fill="#3E6595"/>
<path opacity="0.5" d="M469.67 136.589L106.248 501.617C53.4732 554.627 53.4732 640.57 106.248 693.58C159.024 746.587 244.59 746.587 297.365 693.58L660.787 328.551L469.67 136.589Z" fill="#3E6595"/>
</svg>
